# xmcd
#
# Track frame offsets:
#	150
#	12814
#	28062
#	40743
#	55630
#	72862
#	89551
#	101230
#	122995
#	139284
#	158052
#	171954
#	188086
#	203969
#	216436
#	231117
#	243810
#	256358
#	274623
#	291166
#
# Disc length: 4052 seconds
#
# Revision: 1
# Processed by: cddbd v1.5PL3 Copyright (c) Steve Scherf et al.
# Submitted via: audiograbber 1.83.01
#
DISCID=260fd214
DTITLE=Diverse - Line Dance Favourites CD3
DYEAR=1900
DGENRE=Country
TTITLE0=Down on the farm
TTITLE1=Pickup man
TTITLE2=Little Miss Honkey Tonk
TTITLE3=Third rate romance
TTITLE4=Heart is a lonely hunter
TTITLE5=Kick a little
TTITLE6=Goin' through the big D
TTITLE7=How do I live
TTITLE8=Gone and done it
TTITLE9=Little Rock
TTITLE10=Thinkin' problem
TTITLE11=Walking away a winner
TTITLE12=That ain't no way to go
TTITLE13=Good run of bad luck
TTITLE14=Summertime blues
TTITLE15=XXX's and OOO's (an American girl)
TTITLE16=What the cowgirls do
TTITLE17=Everybody's line dancing
TTITLE18=Swayin' to the music (slow dancin')
TTITLE19=If the Devil danced (in empty packets)
EXTD=
EXTT0=
EXTT1=
EXTT2=
EXTT3=
EXTT4=
EXTT5=
EXTT6=
EXTT7=
EXTT8=
EXTT9=
EXTT10=
EXTT11=
EXTT12=
EXTT13=
EXTT14=
EXTT15=
EXTT16=
EXTT17=
EXTT18=
EXTT19=
PLAYORDER=
